<svg width="105" height="105" viewBox="0 0 105 105" fill="none" xmlns="http://www.w3.org/2000/svg">
<rect x="0.446605" y="0.446605" width="103.612" height="103.612" rx="51.8062" stroke="#F4951F" stroke-width="0.89321"/>
<path fill-rule="evenodd" clip-rule="evenodd" d="M51.2817 21.2413C49.8761 21.5154 48.3023 22.7584 47.6619 24.1003C46.2686 27.0199 47.832 30.5075 50.9429 31.4187C52.1953 31.7856 53.9897 31.559 55.0759 30.8968C55.8316 30.4362 56.6847 29.4917 57.084 28.6737C59.0002 24.748 55.6045 20.3984 51.2817 21.2413ZM51.3369 22.9209C48.8377 23.7427 47.9754 26.811 49.704 28.7306C49.9816 29.0389 50.4627 29.4247 50.7728 29.5879C51.2704 29.8494 51.4606 29.8843 52.3859 29.8843C53.3113 29.8843 53.5014 29.8494 53.999 29.5879C54.7416 29.1973 55.521 28.3203 55.7706 27.5943C56.3623 25.8727 55.5758 23.9311 53.9687 23.1461C53.2482 22.7942 52.0372 22.6906 51.3369 22.9209ZM48.4658 34.1282C46.6924 34.4966 45.1335 35.6781 44.3321 37.2611C43.7898 38.3321 43.6661 39.1744 43.6666 41.7929C43.6672 44.3044 43.7416 44.6852 44.3379 45.231C44.8146 45.6673 45.1214 45.7069 48.0234 45.7069H50.824L51.0528 45.4164C51.3381 45.0543 51.3441 44.7058 51.0708 44.3685C50.8617 44.1106 50.8356 44.1078 48.1169 44.0531L45.3739 43.998V41.4621V38.9263L45.7244 38.1875C46.1704 37.2476 46.8949 36.5242 47.8363 36.0789L48.5763 35.7289H52.3859H56.1956L56.9356 36.0789C58.2037 36.6788 59.0441 37.7333 59.3363 39.0917C59.4193 39.4777 59.4542 40.4794 59.4324 41.848L59.3979 43.998L56.655 44.0531C53.9363 44.1078 53.9101 44.1106 53.7011 44.3685C53.4278 44.7058 53.4338 45.0543 53.7191 45.4164L53.9479 45.7069H56.7485C59.6505 45.7069 59.9572 45.6673 60.4339 45.231C61.0302 44.6852 61.1047 44.3044 61.1052 41.7929C61.1058 39.1843 60.9895 38.3895 60.4462 37.2876C59.7906 35.9579 58.6349 34.9353 57.1359 34.3584C56.4234 34.0842 56.3804 34.0814 52.662 34.059C50.597 34.0467 48.7088 34.0777 48.4658 34.1282ZM34.4097 43.5631C32.212 44.1538 30.5626 45.9498 30.183 48.1657C29.7726 50.5603 31.0798 53.0608 33.2994 54.1266C35.5527 55.2088 38.0335 54.7813 39.7852 53.0091C42.0377 50.7303 42.0236 47.3581 39.7524 45.0904C38.2888 43.6291 36.2902 43.0577 34.4097 43.5631ZM67.663 43.5481C65.64 44.038 63.863 45.8651 63.44 47.8898C62.7854 51.024 64.9069 54.0997 68.0995 54.645C71.171 55.1697 74.1496 52.9611 74.6006 49.8245C75.0061 47.0036 73.1538 44.2839 70.3344 43.5605C69.557 43.361 68.4566 43.3559 67.663 43.5481ZM34.6391 45.1989C32.5541 45.8787 31.3687 47.9553 31.8931 50.0093C32.8391 53.714 37.8176 54.1611 39.4485 50.6877C39.6984 50.1555 39.7422 49.9138 39.7422 49.0697C39.7422 48.2134 39.6995 47.985 39.4304 47.4037C38.7919 46.0241 37.4691 45.1455 35.9348 45.0817C35.4347 45.0608 34.9193 45.1075 34.6391 45.1989ZM67.9007 45.1935C66.6939 45.5934 65.8477 46.3274 65.3389 47.4159C65.0719 47.9868 65.0296 48.2136 65.0296 49.072C65.0296 49.9732 65.0636 50.1356 65.3919 50.8013C66.4858 53.0199 69.2205 53.7391 71.2675 52.3466C71.6138 52.1109 72.0509 51.6745 72.2869 51.3288C74.0658 48.7218 72.3274 45.2144 69.191 45.0828C68.684 45.0615 68.1646 45.106 67.9007 45.1935ZM33.22 57.6625C31.5877 58.0287 29.7293 59.4247 29.0306 60.8093C28.2183 62.4188 28.2664 61.9202 28.2256 69.136C28.2003 73.6112 28.2263 75.7684 28.3092 76.0495C28.4717 76.6011 28.928 77.1182 29.4682 77.3631C29.8831 77.5513 30.3292 77.5658 35.8149 77.568C41.6046 77.5704 41.7245 77.566 42.1992 77.3366C42.4905 77.1958 42.801 76.9248 42.9795 76.6556L43.2759 76.2087L43.3072 71.9833L43.3386 67.7578H52.3859H61.4333L61.4646 71.9833L61.496 76.2087L61.7924 76.6556C61.9708 76.9248 62.2813 77.1958 62.5726 77.3366C63.0474 77.566 63.1673 77.5704 68.957 77.568C74.4574 77.5658 74.8874 77.5518 75.2991 77.362C75.8337 77.1157 76.1702 76.7667 76.3981 76.2218C76.5304 75.9058 76.569 75.3753 76.569 73.8755C76.569 71.9648 76.5652 71.9336 76.2979 71.6669C75.9525 71.3219 75.5292 71.3219 75.1837 71.6669C74.9174 71.9327 74.9127 71.9698 74.9127 73.7948C74.9127 75.0922 74.8727 75.6919 74.7801 75.7843C74.5729 75.9912 63.3922 75.9734 63.2197 75.7658C63.1301 75.6579 63.1026 74.4869 63.1233 71.6588L63.1524 67.7027L63.4284 67.6699C63.5803 67.6519 63.8536 67.5824 64.0358 67.5153C64.5978 67.3085 70.2683 63.8688 70.7767 63.4263C71.7121 62.6123 72.1381 61.1497 71.7777 59.99C71.6844 59.6896 71.6261 59.4259 71.6482 59.4037C71.6702 59.3817 71.9501 59.4961 72.27 59.6578C73.0172 60.0359 73.9132 60.8838 74.2835 61.563C74.8282 62.5623 74.9127 63.161 74.9127 66.0219V68.6499L75.1837 68.9204C75.5325 69.2687 75.9526 69.2652 76.3072 68.9113L76.5874 68.6315L76.5432 65.6312C76.5035 62.9441 76.4754 62.5675 76.2725 62.0221C75.8272 60.8246 75.4351 60.2061 74.5937 59.374C73.1114 57.908 71.781 57.4592 69.1153 57.5256C67.2986 57.5711 67.6476 57.4295 64.2408 59.5018L61.9061 60.922H52.3908H42.8755L40.6135 59.5431C37.1475 57.43 37.4959 57.568 35.5461 57.5378C34.4587 57.5209 33.6596 57.5638 33.22 57.6625ZM35.5406 59.3131C34.4691 59.779 34.1685 61.2426 34.973 62.0767C35.4264 62.5467 41.1221 65.9638 41.5932 66.0484C41.7899 66.0838 43.4663 66.0982 45.3187 66.0807L48.6867 66.0488L48.7171 64.3171L48.7474 62.5853L45.5147 62.553L42.282 62.5207L39.7153 60.947C38.3035 60.0817 37.0208 59.325 36.8647 59.2657C36.4765 59.1184 35.9444 59.1374 35.5406 59.3131ZM67.6246 59.4076C67.3513 59.5548 66.0842 60.3154 64.8088 61.098L62.4898 62.5207L59.0472 62.5527L55.6046 62.5847L55.8302 63.0939C56.0151 63.5112 56.047 63.7642 56.0071 64.4953C55.9776 65.0345 55.8841 65.529 55.7705 65.7456L55.5826 66.104H59.3434C62.4492 66.104 63.1738 66.075 63.5036 65.9374C63.7234 65.8456 65.1939 64.9907 66.7716 64.0375C70.0462 62.0588 70.2196 61.9016 70.2196 60.9111C70.2196 60.4423 70.1602 60.1972 69.9919 59.9722C69.3878 59.1642 68.4791 58.9475 67.6246 59.4076ZM32.399 59.7159C31.6407 60.1324 30.85 60.8995 30.4805 61.5775C29.8733 62.6913 29.8592 62.8724 29.8592 69.523C29.8592 74.1429 29.8918 75.6845 29.9917 75.7843C30.199 75.9912 41.3796 75.9734 41.5521 75.7658C41.6418 75.6579 41.6693 74.4874 41.6485 71.6607L41.6195 67.7063L41.2101 67.6399C40.9851 67.6034 40.5627 67.4493 40.2715 67.2975C39.1341 66.7042 34.312 63.7207 33.9222 63.3691C32.9252 62.4698 32.6022 60.9226 33.1266 59.5581C33.2234 59.3061 33.0942 59.3342 32.399 59.7159ZM50.3127 64.3123L50.3431 66.0488L51.3921 66.0828C51.9691 66.1015 52.6521 66.0861 52.9099 66.0486C54.542 65.811 54.9427 63.5363 53.4834 62.7929C53.1264 62.6111 52.832 62.5758 51.6697 62.5758H50.2822L50.3127 64.3123Z" fill="#F4951F"/>
<path d="M42.0366 23.8227L62.959 44.7451" stroke="#F4951F" stroke-width="1.52521"/>
</svg>
