<svg width="52" height="52" viewBox="0 0 52 52" fill="none" xmlns="http://www.w3.org/2000/svg">
<circle cx="25.9091" cy="25.9091" r="25.4091" fill="#F2F4FA" fill-opacity="0.5" stroke="white"/>
<path d="M22.4545 26.7727C22.9315 26.7727 23.3182 26.3861 23.3182 25.9091C23.3182 25.4321 22.9315 25.0455 22.4545 25.0455V26.7727ZM20.9802 25.2984C20.6429 25.6357 20.6429 26.1825 20.9802 26.5198L26.4764 32.0159C26.8136 32.3532 27.3605 32.3532 27.6977 32.0159C28.035 31.6786 28.035 31.1318 27.6977 30.7946L22.8123 25.9091L27.6977 21.0236C28.035 20.6864 28.035 20.1395 27.6977 19.8023C27.3605 19.465 26.8136 19.465 26.4764 19.8023L20.9802 25.2984ZM22.4545 25.0455H21.5909V26.7727H22.4545V25.0455Z" fill="white"/>
</svg>
