<svg width="129" height="79" viewBox="0 0 129 79" fill="none" xmlns="http://www.w3.org/2000/svg">
<path d="M13.2455 43H0L28.9165 16.0097C32.0696 13.0667 36.9803 13.1265 40.0608 16.1455L48.9509 24.8583L74.5493 2.04356C77.6637 -0.732137 82.381 -0.673577 85.4255 2.17858L129 43H114.603L79.4732 10.7481L61.0446 26.8741L42.6161 43H28.7946L41.4643 31.4095L33.4018 23.8504L13.2455 43Z" fill="#F69220"/>
<path d="M28.6667 43L41.3526 31.4095L48.8487 24.8583L74.4799 2.04356C77.5982 -0.732137 82.3215 -0.673577 85.3699 2.17858L129 43H114.584L79.41 10.7481L60.9579 26.8741L42.5058 43H28.6667Z" fill="#038AD2"/>
<path fill-rule="evenodd" clip-rule="evenodd" d="M1.0238 43H21.2049C22.5974 43 23.9485 43.494 25.0357 44.4007C28.1668 47.0121 28.4776 51.7419 25.9682 54.7738C28.4776 57.8058 28.1668 62.5355 25.0357 65.1469C23.9485 66.0536 22.5974 66.5476 21.2049 66.5476H1.0238V43ZM21.7829 52.4376L22.2341 52.0613C23.4675 51.0326 23.4675 49.0775 22.2341 48.0488C21.942 47.8052 21.579 47.6725 21.2049 47.6725H5.50749V52.4376H21.7829ZM5.50749 57.11V61.8752H21.2049C21.579 61.8752 21.942 61.7424 22.2341 61.4988C23.4675 60.4702 23.4675 58.515 22.2341 57.4864L21.7829 57.11H5.50749Z" fill="#038AD2"/>
<path fill-rule="evenodd" clip-rule="evenodd" d="M32.762 50.0087C32.762 46.1379 35.8492 43 39.6574 43H45.3331C46.6025 43 47.6316 44.046 47.6316 45.3362C47.6316 46.6265 46.6025 47.6725 45.3331 47.6725H39.6574C38.388 47.6725 37.359 48.7184 37.359 50.0087V52.4376H55.035C56.3044 52.4376 57.3335 53.4835 57.3335 54.7738C57.3335 56.0641 56.3044 57.11 55.035 57.11H37.359V59.5389C37.359 60.8292 38.388 61.8752 39.6574 61.8752H55.035C56.3044 61.8752 57.3335 62.9211 57.3335 64.2114C57.3335 65.5017 56.3044 66.5476 55.035 66.5476H39.6574C35.8492 66.5476 32.762 63.4097 32.762 59.5389V50.0087Z" fill="#038AD2"/>
<path fill-rule="evenodd" clip-rule="evenodd" d="M74.1788 45.1819C76.0153 42.2379 80.1902 42.2812 81.9693 45.2628L91.8249 61.7796H93.9347C95.207 61.7796 96.2383 62.8469 96.2383 64.1636C96.2383 65.4802 95.207 66.5476 93.9347 66.5476H61.6847C60.4125 66.5476 59.3812 65.4802 59.3812 64.1636C59.3812 62.8469 60.4125 61.7796 61.6847 61.7796H63.8247L74.1788 45.1819ZM69.3086 61.7796H86.41L78.0493 47.7681L69.3086 61.7796Z" fill="#038AD2"/>
<path fill-rule="evenodd" clip-rule="evenodd" d="M108.545 46.1173C110.336 43.3633 114.254 43.3185 116.103 46.0309L127.56 62.8333C128.287 63.8995 128.037 65.3707 127.001 66.1192C125.966 66.8678 124.537 66.6102 123.81 65.544L120.698 60.9801H104.396L101.457 65.5008C100.753 66.5834 99.3304 66.8735 98.2789 66.1489C97.2274 65.4242 96.9456 63.9591 97.6494 62.8765L108.545 46.1173ZM107.463 56.2624H117.481L112.353 48.7416L107.463 56.2624Z" fill="#038AD2"/>
<path d="M5.62612 74.7896H4.46038C4.42713 74.6106 4.36583 74.4519 4.27648 74.3137C4.18712 74.1736 4.07595 74.0549 3.94296 73.9575C3.80997 73.8602 3.65828 73.7872 3.48788 73.7386C3.31957 73.688 3.13774 73.6627 2.94241 73.6627C2.59539 73.6627 2.28785 73.7444 2.01979 73.9079C1.75173 74.0695 1.54186 74.3069 1.39017 74.6203C1.23847 74.9317 1.16263 75.3122 1.16263 75.7619C1.16263 76.2193 1.23847 76.6047 1.39017 76.918C1.54394 77.2294 1.75381 77.465 2.01979 77.6246C2.28785 77.7822 2.59435 77.8611 2.9393 77.8611C3.13047 77.8611 3.30918 77.8377 3.47542 77.791C3.64373 77.7423 3.79438 77.6713 3.92738 77.5779C4.06244 77.4844 4.17569 77.3696 4.26712 77.2333C4.36063 77.0971 4.42505 76.9414 4.46038 76.7662L5.62612 76.772C5.58248 77.0562 5.48793 77.3229 5.34248 77.572C5.1991 77.8212 5.01104 78.0411 4.77831 78.2318C4.54557 78.4206 4.27336 78.5686 3.96166 78.6756C3.64997 78.7807 3.30398 78.8333 2.92371 78.8333C2.36266 78.8333 1.86187 78.7116 1.42134 78.4683C0.980805 78.225 0.633783 77.8737 0.38027 77.4144C0.126757 76.955 0 76.4042 0 75.7619C0 75.1176 0.127796 74.5668 0.383387 74.1094C0.638978 73.65 0.987039 73.2987 1.42757 73.0554C1.8681 72.8121 2.36681 72.6904 2.92371 72.6904C3.27905 72.6904 3.60944 72.7371 3.91491 72.8306C4.22037 72.924 4.49258 73.0612 4.73155 73.2422C4.97052 73.4213 5.16689 73.6412 5.32066 73.9021C5.47651 74.1609 5.57833 74.4568 5.62612 74.7896Z" fill="#038AD2"/>
<path d="M6.40458 73.6802V72.7722H11.4977V73.6802H9.52466V78.7515H8.37762V73.6802H6.40458Z" fill="#038AD2"/>
<path d="M12.4795 78.7515V72.7722H14.8734C15.3638 72.7722 15.7752 72.8578 16.1077 73.0291C16.4422 73.2004 16.6947 73.4359 16.8651 73.7356C17.0376 74.0334 17.1238 74.3721 17.1238 74.7517C17.1238 75.1351 17.0376 75.4757 16.8651 75.7735C16.6926 76.0713 16.4381 76.3059 16.1015 76.4772C15.7648 76.6465 15.3503 76.7312 14.8578 76.7312H13.2713V75.8407H14.7019C14.9887 75.8407 15.2235 75.794 15.4064 75.7005C15.5892 75.6071 15.7243 75.4787 15.8116 75.3152C15.9009 75.1517 15.9456 74.9638 15.9456 74.7517C15.9456 74.5395 15.9009 74.3527 15.8116 74.1911C15.7243 74.0296 15.5882 73.904 15.4033 73.8145C15.2204 73.723 14.9845 73.6773 14.6957 73.6773H13.6359V78.7515H12.4795Z" fill="#038AD2"/>
<path d="M23.8323 75.7619C23.8323 76.4061 23.7035 76.9579 23.4458 77.4173C23.1902 77.8747 22.8411 78.225 22.3985 78.4683C21.958 78.7116 21.4582 78.8333 20.8992 78.8333C20.3403 78.8333 19.8395 78.7116 19.3969 78.4683C18.9563 78.2231 18.6072 77.8718 18.3496 77.4144C18.094 76.955 17.9662 76.4042 17.9662 75.7619C17.9662 75.1176 18.094 74.5668 18.3496 74.1094C18.6072 73.65 18.9563 73.2987 19.3969 73.0554C19.8395 72.8121 20.3403 72.6904 20.8992 72.6904C21.4582 72.6904 21.958 72.8121 22.3985 73.0554C22.8411 73.2987 23.1902 73.65 23.4458 74.1094C23.7035 74.5668 23.8323 75.1176 23.8323 75.7619ZM22.6697 75.7619C22.6697 75.3083 22.5938 74.9259 22.4421 74.6145C22.2925 74.3011 22.0847 74.0646 21.8188 73.905C21.5528 73.7434 21.2463 73.6627 20.8992 73.6627C20.5522 73.6627 20.2457 73.7434 19.9797 73.905C19.7138 74.0646 19.5049 74.3011 19.3532 74.6145C19.2036 74.9259 19.1288 75.3083 19.1288 75.7619C19.1288 76.2154 19.2036 76.5988 19.3532 76.9122C19.5049 77.2236 19.7138 77.4601 19.9797 77.6216C20.2457 77.7813 20.5522 77.8611 20.8992 77.8611C21.2463 77.8611 21.5528 77.7813 21.8188 77.6216C22.0847 77.4601 22.2925 77.2236 22.4421 76.9122C22.5938 76.5988 22.6697 76.2154 22.6697 75.7619Z" fill="#038AD2"/>
<path d="M24.9256 72.7722H26.0726V76.848H26.1318L29.1335 72.7722H30.1714V78.7515H29.015V74.6787H28.9621L25.9511 78.7515H24.9256V72.7722Z" fill="#038AD2"/>
<path d="M31.1509 73.6802V72.7722H36.2441V73.6802H34.271V78.7515H33.124V73.6802H31.1509Z" fill="#038AD2"/>
<path d="M37.2259 78.7515V72.7722H41.3777V73.6802H38.3823V75.3035H41.1626V76.2115H38.3823V77.8435H41.4026V78.7515H37.2259Z" fill="#038AD2"/>
<path d="M42.1429 78.7515V77.8523L42.3237 77.8435C42.5689 77.8299 42.7632 77.7472 42.9066 77.5954C43.052 77.4436 43.159 77.1993 43.2276 76.8626C43.2983 76.5258 43.345 76.0743 43.3679 75.5079L43.4739 72.7722H47.6568V78.7515H46.5254V73.6627H44.5523L44.4526 75.8436C44.4235 76.4976 44.3466 77.0397 44.2219 77.4698C44.0993 77.9 43.8978 78.2211 43.6172 78.4333C43.3388 78.6455 42.9513 78.7515 42.4546 78.7515H42.1429Z" fill="#038AD2"/>
<path d="M49.7 75.0816H51.3208C51.8091 75.0816 52.2279 75.1565 52.577 75.3064C52.9281 75.4543 53.1972 75.6636 53.3842 75.9341C53.5713 76.2047 53.6648 76.5229 53.6648 76.8888C53.6648 77.2567 53.5713 77.5808 53.3842 77.8611C53.1972 78.1394 52.9281 78.3574 52.577 78.515C52.2279 78.6727 51.8091 78.7515 51.3208 78.7515H48.9301V72.7722H50.0896V77.864H51.3208C51.5785 77.864 51.7967 77.8182 51.9754 77.7268C52.1541 77.6353 52.2892 77.5146 52.3806 77.3647C52.4741 77.2149 52.5208 77.0523 52.5208 76.8771C52.5208 76.6241 52.417 76.409 52.2092 76.2319C52.0034 76.0528 51.7073 75.9633 51.3208 75.9633H49.7V75.0816Z" fill="#038AD2"/>
<path d="M54.7892 78.7515V72.7722H55.9456V75.3035H58.9036V72.7722H60.0631V78.7515H58.9036V76.2115H55.9456V78.7515H54.7892Z" fill="#038AD2"/>
<path d="M62.1406 78.7515H60.9063L63.1536 72.7722H64.5812L66.8316 78.7515H65.5973L63.8923 73.9984H63.8424L62.1406 78.7515ZM62.1811 76.4071H65.5474V77.2771H62.1811V76.4071Z" fill="#038AD2"/>
<path d="M72.3853 78.7515H71.2258V73.6773H70.166C69.8792 73.6773 69.6434 73.7172 69.4584 73.797C69.2756 73.8748 69.1395 73.9897 69.0501 74.1415C68.9628 74.2913 68.9192 74.4724 68.9192 74.6845C68.9192 74.8967 68.9628 75.0758 69.0501 75.2217C69.1374 75.3658 69.2725 75.4757 69.4553 75.5516C69.6403 75.6256 69.8751 75.6626 70.1598 75.6626H71.712V76.5618H70.0039C69.5135 76.5618 69.1 76.4859 68.7634 76.3341C68.4267 76.1803 68.1711 75.9633 67.9966 75.683C67.8241 75.4008 67.7379 75.068 67.7379 74.6845C67.7379 74.303 67.8231 73.9692 67.9935 73.6831C68.1659 73.395 68.4194 73.1712 68.754 73.0116C69.0886 72.852 69.5 72.7722 69.9883 72.7722H72.3853V78.7515ZM69.0844 76.0421H70.3468L68.7945 78.7515H67.5041L69.0844 76.0421Z" fill="#038AD2"/>
<path d="M79.64 78.7515L77.5392 76.1385H76.9719V78.7515H75.8155V72.7722H76.9719V75.2305H77.2618L79.5309 72.7722H80.9553L78.4337 75.4991L81.0644 78.7515H79.64Z" fill="#038AD2"/>
<path d="M87.2111 75.7619C87.2111 76.4061 87.0823 76.9579 86.8246 77.4173C86.569 77.8747 86.2199 78.225 85.7773 78.4683C85.3368 78.7116 84.837 78.8333 84.278 78.8333C83.7191 78.8333 83.2183 78.7116 82.7757 78.4683C82.3351 78.2231 81.986 77.8718 81.7284 77.4144C81.4728 76.955 81.345 76.4042 81.345 75.7619C81.345 75.1176 81.4728 74.5668 81.7284 74.1094C81.986 73.65 82.3351 73.2987 82.7757 73.0554C83.2183 72.8121 83.7191 72.6904 84.278 72.6904C84.837 72.6904 85.3368 72.8121 85.7773 73.0554C86.2199 73.2987 86.569 73.65 86.8246 74.1094C87.0823 74.5668 87.2111 75.1176 87.2111 75.7619ZM86.0485 75.7619C86.0485 75.3083 85.9726 74.9259 85.8209 74.6145C85.6713 74.3011 85.4635 74.0646 85.1975 73.905C84.9316 73.7434 84.6251 73.6627 84.278 73.6627C83.931 73.6627 83.6245 73.7434 83.3585 73.905C83.0925 74.0646 82.8837 74.3011 82.732 74.6145C82.5824 74.9259 82.5076 75.3083 82.5076 75.7619C82.5076 76.2154 82.5824 76.5988 82.732 76.9122C82.8837 77.2236 83.0925 77.4601 83.3585 77.6216C83.6245 77.7813 83.931 77.8611 84.278 77.8611C84.6251 77.8611 84.9316 77.7813 85.1975 77.6216C85.4635 77.4601 85.6713 77.2236 85.8209 76.9122C85.9726 76.5988 86.0485 76.2154 86.0485 75.7619Z" fill="#038AD2"/>
<path d="M88.3044 72.7722H89.7195L91.6146 77.1049H91.6894L93.5845 72.7722H94.9996V78.7515H93.89V74.6436H93.8307L92.0666 78.734H91.2374L89.4732 74.6349H89.414V78.7515H88.3044V72.7722Z" fill="#038AD2"/>
<path d="M101.467 72.7722V78.7515H100.32V73.6714H97.5275V78.7515H96.3804V72.7722H101.467Z" fill="#038AD2"/>
<path d="M103.67 78.7515H102.436L104.683 72.7722H106.111L108.361 78.7515H107.127L105.422 73.9984H105.372L103.67 78.7515ZM103.711 76.4071H107.077V77.2771H103.711V76.4071Z" fill="#038AD2"/>
<path d="M109.202 78.7515V72.7722H110.358V75.3035H113.316V72.7722H114.476V78.7515H113.316V76.2115H110.358V78.7515H109.202Z" fill="#038AD2"/>
<path d="M115.734 72.7722H116.881V76.848H116.94L119.942 72.7722H120.98V78.7515H119.823V74.6787H119.77L116.759 78.7515H115.734V72.7722Z" fill="#038AD2"/>
<path d="M126.952 78.7515H125.793V73.6773H124.733C124.446 73.6773 124.211 73.7172 124.026 73.797C123.843 73.8748 123.707 73.9897 123.617 74.1415C123.53 74.2913 123.486 74.4724 123.486 74.6845C123.486 74.8967 123.53 75.0758 123.617 75.2217C123.705 75.3658 123.84 75.4757 124.022 75.5516C124.207 75.6256 124.442 75.6626 124.727 75.6626H126.279V76.5618H124.571C124.081 76.5618 123.667 76.4859 123.33 76.3341C122.994 76.1803 122.738 75.9633 122.564 75.683C122.391 75.4008 122.305 75.068 122.305 74.6845C122.305 74.303 122.39 73.9692 122.561 73.6831C122.733 73.395 122.987 73.1712 123.321 73.0116C123.656 72.852 124.067 72.7722 124.555 72.7722H126.952V78.7515ZM123.652 76.0421H124.914L123.362 78.7515H122.071L123.652 76.0421Z" fill="#038AD2"/>
</svg>
