<svg width="8" height="14" viewBox="0 0 8 14" fill="none" xmlns="http://www.w3.org/2000/svg">
<path d="M5.54547 6.04545C5.0685 6.04545 4.68183 6.43211 4.68183 6.90909C4.68183 7.38606 5.0685 7.77272 5.54547 7.77272L5.54547 6.04545ZM7.01979 7.51977C7.35706 7.1825 7.35706 6.63568 7.01979 6.29841L1.52364 0.802256C1.18637 0.464985 0.639548 0.464985 0.302277 0.802256C-0.0349941 1.13953 -0.0349941 1.68635 0.302277 2.02362L5.18774 6.90909L0.302276 11.7946C-0.0349951 12.1318 -0.0349951 12.6786 0.302276 13.0159C0.639547 13.3532 1.18637 13.3532 1.52364 13.0159L7.01979 7.51977ZM5.54547 7.77272L6.40911 7.77272L6.40911 6.04545L5.54547 6.04545L5.54547 7.77272Z" fill="white"/>
</svg>
