<svg width="78" height="46" viewBox="0 0 78 46" fill="none" xmlns="http://www.w3.org/2000/svg">
<path fill-rule="evenodd" clip-rule="evenodd" d="M37.3814 1.07379L38.5025 2.17517V3.70616V5.237H39.3138C39.7601 5.237 40.2079 5.31823 40.3089 5.41751C40.4443 5.55048 40.4926 6.87645 40.4926 10.4481C40.4926 15.2895 40.492 15.2985 40.1523 15.5323C39.9652 15.6611 39.5174 15.7665 39.1572 15.7665H38.5025V16.5019C38.5025 17.3655 37.9928 17.199 42.7125 17.878C46.6797 18.4488 47.1445 18.5492 47.9411 19.0069C48.8217 19.5129 49.2188 20.3559 49.2188 21.7188V22.7626L50.2522 23.3772C50.8206 23.7154 52.6726 24.8207 54.3679 25.8335L57.4501 27.6751L61.0268 25.3309C62.994 24.0417 64.7549 22.9867 64.9398 22.9867C65.1247 22.9867 65.3761 23.1269 65.4983 23.2984C65.6204 23.4697 67.5598 27.6588 69.8081 32.6076L73.8958 41.605L75.948 43.1321C77.7604 44.4808 78 44.7105 78 45.0993C78 45.3804 77.8931 45.5955 77.7039 45.6951C77.3287 45.8925 64.3493 45.9089 63.6538 45.7129C63.1746 45.5778 57.4519 41.9069 56.7437 41.2801C56.5461 41.1052 56.2532 40.7109 56.0931 40.404C55.8304 39.9007 55.8018 39.4874 55.8013 36.1922L55.801 32.5385L52.6464 30.6582C50.9114 29.6241 49.4304 28.7554 49.3554 28.7279C49.2802 28.7002 49.2188 29.0165 49.2188 29.4308C49.2188 30.0238 49.1336 30.2834 48.8179 30.6521C48.0232 31.5802 48.1937 31.5608 40.8065 31.5608H34.0628V32.6065V33.6521L40.8371 33.6971L47.6114 33.7419L48.6178 34.2258C51.0986 35.4186 52.5823 38.159 52.1297 40.7126C51.6453 43.4454 49.5622 45.4572 46.8119 45.8478C45.3738 46.0522 6.60788 46.05 5.28165 45.8455C3.14159 45.5155 1.43875 44.247 0.487595 42.2742C0.0407181 41.3473 0 41.1375 0 39.7587C0 38.3791 0.0405655 38.1706 0.488815 37.2405C1.12154 35.9283 2.22518 34.8439 3.56075 34.2222L4.59274 33.7419L11.4818 33.6667L18.371 33.5915V32.6137V31.636L11.2522 31.5608C4.22486 31.4865 4.12642 31.4812 3.5857 31.1509C3.28442 30.9668 2.95711 30.642 2.85852 30.4293C2.73038 30.153 2.6791 28.2131 2.6791 23.6388V17.2354L3.27339 16.6513L3.86785 16.0674L6.3735 16.0651C7.75178 16.0637 8.98263 15.9986 9.10893 15.9202C9.3055 15.7982 9.34959 14.8148 9.41512 9.08915C9.48905 2.6296 9.50253 2.38637 9.80733 1.98549C9.98094 1.75715 10.3131 1.43074 10.5455 1.26016C10.9554 0.959316 11.1749 0.948637 17.8628 0.905165C22.4302 0.875382 25.0297 0.915694 25.5633 1.0246C26.5289 1.2215 27.4575 1.94006 27.8318 2.77987C27.9733 3.09711 28.5987 6.12253 29.2216 9.50281C30.1101 14.3255 30.4154 15.7062 30.6392 15.9148C30.848 16.1093 31.6626 16.2867 33.6801 16.5764C35.1957 16.7942 36.5564 16.9717 36.7036 16.9711C36.914 16.9702 36.9715 16.8405 36.9715 16.3682V15.7665H36.2826C35.7978 15.7665 35.5029 15.6773 35.2875 15.4657C34.9944 15.1776 34.9814 14.9643 34.9814 10.4499C34.9814 5.06372 34.9389 5.237 36.2565 5.237H36.9715V3.99136V2.74557L36.053 1.85252C35.0772 0.903811 34.966 0.619815 35.4145 0.221198C35.8945 -0.205699 36.2251 -0.0624974 37.3814 1.07379ZM25.593 2.59846C25.8603 2.71278 26.187 2.96835 26.3193 3.1666C26.4594 3.37659 27.0335 6.09561 27.6957 9.68437C28.3207 13.071 28.9 16.0152 28.9831 16.2271C29.1849 16.7409 30.1074 17.5209 30.6452 17.6323C30.8829 17.6815 34.3843 18.1939 38.4259 18.7707C42.4675 19.3476 46.0499 19.8956 46.3867 19.9884C47.4209 20.2737 47.6879 20.632 47.6879 21.7343V22.6859H42.3236C37.2897 22.6859 36.923 22.7041 36.3685 22.9821C34.9278 23.7043 34.609 25.6032 35.7271 26.8034C36.4965 27.6297 36.6556 27.6498 42.4014 27.6498H47.6879V28.6727C47.6879 29.2677 47.6111 29.7711 47.5042 29.876C47.3631 30.0147 42.3628 30.0566 25.9292 30.0566C1.83112 30.0566 4.05692 30.18 4.05692 28.8425V28.1011H6.43994C7.78974 28.1011 8.95125 28.0335 9.11903 27.9454C9.4638 27.764 9.52304 27.0225 9.21288 26.7697C9.0901 26.6695 8.0526 26.5884 6.57205 26.5632C4.24966 26.5236 4.13346 26.5074 4.13346 26.2208C4.13346 25.9343 4.24966 25.918 6.57205 25.8784C8.0526 25.8532 9.0901 25.7721 9.21288 25.6719C9.52304 25.4191 9.4638 24.6776 9.11903 24.4962C8.95125 24.4081 7.78974 24.3405 6.43994 24.3405C4.15903 24.3405 4.05692 24.3276 4.05692 24.0397C4.05692 23.7525 4.15965 23.7387 6.31502 23.7367C8.95829 23.7343 9.23186 23.6836 9.36275 23.1712C9.56407 22.3829 9.37072 22.3163 6.64309 22.2346C4.18353 22.1609 4.13255 22.1527 4.08447 21.821L4.03564 21.4825H6.42922C7.78653 21.4825 8.9511 21.4151 9.11903 21.3268C9.4638 21.1454 9.52304 20.404 9.21288 20.1511C9.0901 20.051 8.0526 19.9699 6.57205 19.9446L4.13346 19.9031L4.08768 19.0421C4.01022 17.5854 3.97334 17.6054 6.84915 17.5469C9.65853 17.4899 10.1311 17.344 10.6608 16.3706C10.9264 15.8825 10.946 15.3993 10.946 9.34682V2.84726L11.2863 2.6132C11.5821 2.40953 12.5076 2.37975 18.3668 2.38486C23.7526 2.38952 25.2046 2.43254 25.593 2.59846ZM25.2855 3.58237C25.5306 3.67954 25.6598 3.92217 25.781 4.51302C26.2568 6.83267 27.9392 16.2283 27.9392 16.566C27.9392 17.4106 27.849 17.4016 19.8549 15.7557C15.7549 14.9117 12.2455 14.1272 12.0559 14.0126L11.7115 13.8041V8.85223C11.7115 3.90547 11.7118 3.90006 12.0518 3.66615C12.3468 3.46308 13.2254 3.43315 18.673 3.44142C22.1275 3.44669 25.1031 3.51016 25.2855 3.58237ZM24.3406 5.12419C24.4859 5.53709 26.2366 15.3837 26.1755 15.4436C26.1396 15.4791 23.2148 14.9099 19.6762 14.179L13.2424 12.85V8.89315V4.93616H18.7584C23.0341 4.93616 24.2895 4.97843 24.3406 5.12419ZM38.9617 10.5018V14.2623H37.737H36.5123V10.5018V6.74122H37.737H38.9617V10.5018ZM20.201 18.6426C24.2388 19.5505 27.6316 20.3661 27.7407 20.455C28.0155 20.6791 28.0293 27.8019 27.7554 28.071C27.4906 28.3312 12.16 28.3312 11.8952 28.071C11.6319 27.8123 11.6319 17.4091 11.8952 17.1504C11.9962 17.0511 12.2545 16.9748 12.4693 16.9809C12.6841 16.987 16.1632 17.7348 20.201 18.6426ZM19.9019 20.1084L26.3317 21.5607L26.3736 24.154L26.4154 26.7473H19.829H13.2424V22.6859C13.2424 20.4521 13.294 18.6316 13.3572 18.6403C13.4204 18.649 16.3655 19.3097 19.9019 20.1084ZM54.502 27.6643C57.7007 29.5751 60.404 31.2464 60.5093 31.3783C60.9986 31.9917 60.536 32.9146 59.7391 32.9146C59.4841 32.9146 57.3082 31.6924 53.7805 29.5677L48.2237 26.2208L42.6523 26.1456L37.0808 26.0704L36.7803 25.6748C36.4588 25.2515 36.5054 24.8201 36.916 24.4167C37.1131 24.2229 37.9816 24.1901 42.9162 24.1901H48.6861L54.502 27.6643ZM65.5231 26.8455C66.0283 27.9636 66.4646 28.9404 66.4926 29.0162C66.5209 29.0927 65.9724 29.154 65.2588 29.154C63.9602 29.154 63.5871 29.2798 63.4127 29.776C63.3652 29.9114 63.4283 30.1652 63.5531 30.3401C63.7611 30.6319 63.9223 30.6582 65.5012 30.6582H67.2225L67.5593 31.3392C67.7444 31.7136 67.896 32.052 67.896 32.0913C67.896 32.1304 67.3837 32.1625 66.7577 32.1625C65.0356 32.1625 64.5284 32.4741 64.8521 33.3338C64.9718 33.6516 65.0592 33.6667 66.789 33.6667H68.6003L68.9372 34.3476C69.1222 34.722 69.2738 35.0943 69.2738 35.1749C69.2738 35.2596 68.6585 35.3213 67.8145 35.3213C66.4482 35.3213 66.3472 35.3425 66.2299 35.6542C66.0488 36.1351 66.1991 36.5274 66.6256 36.6867C66.83 36.7631 67.68 36.8255 68.5143 36.8255C70.0154 36.8255 70.0336 36.8299 70.2456 37.2392C70.8154 38.3398 70.8243 38.3297 69.2928 38.3297C68.0725 38.3297 67.8879 38.3655 67.6919 38.6404C67.4578 38.9689 67.5106 39.4636 67.7997 39.6483C67.8948 39.7091 68.7553 39.7926 69.7121 39.834L71.4515 39.9092L72.0359 41.1877C72.6196 42.4651 72.9295 42.8103 74.5694 44.011L75.0147 44.3371L69.5494 44.3418L64.0842 44.3466L60.8711 42.2485C59.1039 41.0945 57.585 40.016 57.4954 39.8517C57.3959 39.6691 57.3327 38.375 57.3327 36.5235V33.4941L58.1551 33.9565C59.629 34.7851 60.9972 34.5128 61.8971 33.2118C62.1961 32.7795 62.2484 32.5439 62.1991 31.8518C62.1192 30.7276 61.7252 30.2256 60.2336 29.3473C59.5643 28.9532 59.0167 28.5899 59.0167 28.54C59.0167 28.4678 62.3524 26.2339 64.2218 25.0543L64.6045 24.8127L65.5231 26.8455ZM32.5319 32.6137V33.6667H26.2552H19.9784V32.6137V31.5608H26.2552H32.5319V32.6137ZM47.586 35.4317C47.9929 35.565 48.6611 35.9701 49.0708 36.3321C51.6558 38.6155 51.0316 42.5637 47.8542 44.0277L46.999 44.4218H26.1786C2.7881 44.4218 4.49859 44.5048 3.10714 43.3013C0.44381 40.9979 1.16472 36.6886 4.41286 35.4944L5.29313 35.1709L26.0696 35.1802C44.7472 35.1885 46.9206 35.2139 47.586 35.4317ZM47.2276 36.9147C48.4058 37.4167 49.0658 38.441 49.0658 39.7676C49.0658 40.8152 48.7516 41.4936 47.9572 42.1616C46.3623 43.5029 44.0104 42.974 43.0202 41.0515C42.6067 40.2484 42.7536 38.8126 43.3319 38.0059C44.186 36.8144 45.8792 36.3401 47.2276 36.9147ZM39.421 36.8696L39.8037 37.0597L39.8455 39.7112C39.881 41.974 39.8515 42.3979 39.6431 42.6026C39.4236 42.8183 38.0611 42.8424 26.0384 42.8424C13.2187 42.8424 12.6671 42.8311 12.4204 42.5632C12.1968 42.3204 12.1688 41.9442 12.2054 39.6719L12.2473 37.0597L12.63 36.8696C13.1888 36.5921 38.8622 36.5921 39.421 36.8696ZM7.42386 36.9147C8.57403 37.4048 9.283 38.4797 9.29463 39.7509C9.32111 42.6455 5.5987 44.0094 3.70557 41.7986C2.43385 40.3136 2.90766 37.9316 4.65504 37.0251C5.44852 36.6136 6.60849 36.5672 7.42386 36.9147ZM46.9731 38.4869C47.9306 39.227 47.721 40.6889 46.5789 41.2374C44.9523 42.0182 43.5001 39.9105 44.791 38.6422C45.3764 38.0669 46.3409 37.9984 46.9731 38.4869ZM38.3494 39.7587V41.3382H26.0255H13.7017V39.7587V38.1793H26.0255H38.3494V39.7587ZM7.1636 38.4826C7.3793 38.6492 7.63527 39.022 7.73218 39.3108C8.11827 40.4602 6.83752 41.7186 5.66775 41.3392C4.25931 40.8825 4.08263 39.0024 5.38636 38.3473C5.9081 38.0852 6.73035 38.1477 7.1636 38.4826Z" fill="#DDE2E6"/>
</svg>
