<svg width="197" height="121" viewBox="0 0 197 121" fill="none" xmlns="http://www.w3.org/2000/svg">
<path d="M20.2277 80.8745H0L43.5638 34.4064C48.5094 29.1311 56.9147 29.2332 61.7306 34.6271L74.7545 49.2138L113.238 10.0175C118.148 5.01615 126.237 5.11687 131.022 10.2389L197 80.8745H175.013L121.366 24.5888L93.2232 52.7316L65.0804 80.8745H43.9732L63.3214 60.6468L51.0089 47.4549L20.2277 80.8745Z" fill="#F69220"/>
<path d="M43.9732 80.8745L63.3214 60.6468L74.7545 49.2138L113.238 10.0175C118.149 5.01615 126.237 5.11688 131.022 10.2389L197 80.8745H175.013L121.366 24.5888L93.2232 52.7316L65.0804 80.8745H43.9732Z" fill="#038AD2"/>
<path d="M34.6884 100.709L36.7026 102.551C40.3905 105.925 40.3905 111.735 36.7026 115.108V115.108C35.4069 116.293 33.7147 116.95 31.9589 116.95H4.39722V100.709M34.6884 100.709L36.7026 98.8671C40.3905 95.4939 40.3905 89.6836 36.7026 86.3104V86.3104C35.4069 85.1254 33.7147 84.4682 31.9589 84.4682H4.39722V100.709M34.6884 100.709H4.39722" stroke="#038AD2" stroke-width="7.03572"/>
<path d="M68.8426 84.4682H60.1558C56.2701 84.4682 53.1201 87.6182 53.1201 91.5039V100.709M83.6916 116.95H60.1558C56.2701 116.95 53.1201 113.8 53.1201 109.915V100.709M53.1201 100.709H83.6916" stroke="#038AD2" stroke-width="7.03572" stroke-linecap="round"/>
<path d="M94.9816 116.933H100.166M144.232 116.933H139.047M139.047 116.933L123.065 87.3549C121.75 84.9205 118.268 84.8878 116.907 87.297L100.166 116.933M139.047 116.933H100.166" stroke="#038AD2" stroke-width="7.03572" stroke-linecap="round"/>
<path d="M152.478 116.95L158.036 107.461M192.603 116.95L186.774 107.461M186.774 107.461L175.132 88.5094C173.742 86.2464 170.441 86.2811 169.099 88.5728L158.036 107.461M186.774 107.461H158.036" stroke="#038AD2" stroke-width="7.03572" stroke-linecap="round"/>
</svg>
