<svg width="197" height="141" viewBox="0 0 197 141" fill="none" xmlns="http://www.w3.org/2000/svg">
<path d="M20.2277 80.8745H0L43.5638 34.4064C48.5094 29.1311 56.9147 29.2332 61.7306 34.6271L74.7545 49.2138L113.238 10.0175C118.148 5.01615 126.237 5.11687 131.022 10.2389L197 80.8745H175.013L121.366 24.5888L93.2232 52.7316L65.0804 80.8745H43.9732L63.3214 60.6468L51.0089 47.4549L20.2277 80.8745Z" fill="#F69220"/>
<path d="M43.9731 80.8745L63.3214 60.6468L74.7544 49.2138L113.238 10.0175C118.148 5.01615 126.237 5.11688 131.022 10.2389L197 80.8745H175.013L121.366 24.5888L93.2232 52.7316L65.0803 80.8745H43.9731Z" fill="#038AD2"/>
<path d="M34.6887 100.709L36.7028 102.551C40.3908 105.925 40.3908 111.735 36.7028 115.108V115.108C35.4072 116.293 33.7149 116.95 31.9591 116.95H4.39746V100.709M34.6887 100.709L36.7028 98.8671C40.3908 95.4939 40.3908 89.6836 36.7028 86.3104V86.3104C35.4072 85.1254 33.7149 84.4682 31.9591 84.4682H4.39746V100.709M34.6887 100.709H4.39746" stroke="#038AD2" stroke-width="7.03572"/>
<path d="M68.8426 84.4682H60.1558C56.2701 84.4682 53.1201 87.6182 53.1201 91.5039V100.709M83.6916 116.95H60.1558C56.2701 116.95 53.1201 113.8 53.1201 109.915V100.709M53.1201 100.709H83.6916" stroke="#038AD2" stroke-width="7.03572" stroke-linecap="round"/>
<path d="M94.9817 116.933H100.166M144.232 116.933H139.047M139.047 116.933L123.065 87.3549C121.75 84.9205 118.268 84.8878 116.907 87.297L100.166 116.933M139.047 116.933H100.166" stroke="#038AD2" stroke-width="7.03572" stroke-linecap="round"/>
<path d="M152.478 116.95L158.036 107.461M192.603 116.95L186.774 107.461M186.774 107.461L175.132 88.5094C173.742 86.2464 170.441 86.2811 169.099 88.5728L158.036 107.461M186.774 107.461H158.036" stroke="#038AD2" stroke-width="7.03572" stroke-linecap="round"/>
<path d="M9.22884 131.332H7.46332C7.41297 131.043 7.32013 130.786 7.1848 130.563C7.04948 130.336 6.88111 130.144 6.6797 129.987C6.47828 129.829 6.24855 129.711 5.99048 129.633C5.73557 129.551 5.4602 129.51 5.16437 129.51C4.63881 129.51 4.17304 129.642 3.76707 129.907C3.36109 130.168 3.04324 130.552 2.8135 131.058C2.58376 131.562 2.46889 132.177 2.46889 132.904C2.46889 133.644 2.58376 134.267 2.8135 134.774C3.04638 135.277 3.36424 135.658 3.76707 135.916C4.17304 136.171 4.63724 136.298 5.15965 136.298C5.44918 136.298 5.71983 136.261 5.9716 136.185C6.22652 136.106 6.45468 135.991 6.65609 135.84C6.86065 135.689 7.03217 135.504 7.17064 135.283C7.31226 135.063 7.40982 134.811 7.46332 134.528L9.22884 134.538C9.16275 134.997 9.01956 135.428 8.79926 135.831C8.58211 136.234 8.2973 136.589 7.94483 136.898C7.59235 137.203 7.18008 137.442 6.70802 137.615C6.23596 137.785 5.71197 137.87 5.13605 137.87C4.28634 137.87 3.52789 137.674 2.8607 137.28C2.19352 136.887 1.66796 136.319 1.28401 135.576C0.900067 134.833 0.708095 133.943 0.708095 132.904C0.708095 131.863 0.901641 130.972 1.28873 130.232C1.67582 129.49 2.20296 128.922 2.87015 128.528C3.53733 128.135 4.29263 127.938 5.13605 127.938C5.6742 127.938 6.17459 128.014 6.63721 128.165C7.09983 128.316 7.5121 128.538 7.87402 128.83C8.23593 129.12 8.53333 129.475 8.76622 129.897C9.00225 130.316 9.15646 130.794 9.22884 131.332ZM10.4078 129.538V128.07H18.1213V129.538H15.1332V137.738H13.396V129.538H10.4078ZM19.6083 137.738V128.07H23.2338C23.9765 128.07 24.5996 128.209 25.1031 128.486C25.6098 128.763 25.9922 129.143 26.2503 129.628C26.5115 130.11 26.6421 130.657 26.6421 131.271C26.6421 131.891 26.5115 132.442 26.2503 132.923C25.9891 133.405 25.6035 133.784 25.0937 134.061C24.5839 134.335 23.956 134.471 23.2102 134.471H20.8074V133.032H22.9741C23.4084 133.032 23.7641 132.956 24.041 132.805C24.3179 132.654 24.5225 132.446 24.6547 132.182C24.79 131.918 24.8577 131.614 24.8577 131.271C24.8577 130.928 24.79 130.626 24.6547 130.364C24.5225 130.103 24.3164 129.9 24.0363 129.756C23.7593 129.608 23.4021 129.534 22.9647 129.534H21.3597V137.738H19.6083ZM36.8021 132.904C36.8021 133.946 36.6069 134.838 36.2167 135.581C35.8296 136.32 35.3009 136.887 34.6306 137.28C33.9634 137.674 33.2065 137.87 32.3599 137.87C31.5134 137.87 30.7549 137.674 30.0846 137.28C29.4174 136.884 28.8887 136.316 28.4985 135.576C28.1114 134.833 27.9178 133.943 27.9178 132.904C27.9178 131.863 28.1114 130.972 28.4985 130.232C28.8887 129.49 29.4174 128.922 30.0846 128.528C30.7549 128.135 31.5134 127.938 32.3599 127.938C33.2065 127.938 33.9634 128.135 34.6306 128.528C35.3009 128.922 35.8296 129.49 36.2167 130.232C36.6069 130.972 36.8021 131.863 36.8021 132.904ZM35.0413 132.904C35.0413 132.171 34.9264 131.553 34.6967 131.049C34.4701 130.542 34.1554 130.16 33.7525 129.902C33.3497 129.641 32.8855 129.51 32.3599 129.51C31.8344 129.51 31.3702 129.641 30.9674 129.902C30.5645 130.16 30.2482 130.542 30.0185 131.049C29.7919 131.553 29.6786 132.171 29.6786 132.904C29.6786 133.637 29.7919 134.257 30.0185 134.764C30.2482 135.268 30.5645 135.65 30.9674 135.911C31.3702 136.169 31.8344 136.298 32.3599 136.298C32.8855 136.298 33.3497 136.169 33.7525 135.911C34.1554 135.65 34.4701 135.268 34.6967 134.764C34.9264 134.257 35.0413 133.637 35.0413 132.904ZM38.4578 128.07H40.195V134.66H40.2847L44.8307 128.07H46.4026V137.738H44.6513V131.153H44.571L40.0109 137.738H38.4578V128.07ZM47.8861 129.538V128.07H55.5996V129.538H52.6115V137.738H50.8743V129.538H47.8861ZM57.0866 137.738V128.07H63.3745V129.538H58.838V132.163H63.0488V133.631H58.838V136.27H63.4123V137.738H57.0866ZM64.5334 137.738V136.284L64.8072 136.27C65.1786 136.248 65.4728 136.114 65.69 135.869C65.9103 135.623 66.0723 135.228 66.1762 134.684C66.2832 134.139 66.354 133.409 66.3886 132.494L66.5491 128.07H72.8842V137.738H71.1706V129.51H68.1825L68.0314 133.036C67.9873 134.094 67.8709 134.97 67.6821 135.666C67.4964 136.361 67.1911 136.881 66.7663 137.224C66.3446 137.567 65.7576 137.738 65.0055 137.738H64.5334ZM75.9786 131.804H78.4333C79.1729 131.804 79.807 131.925 80.3357 132.168C80.8676 132.407 81.2751 132.745 81.5584 133.183C81.8416 133.62 81.9832 134.135 81.9832 134.726C81.9832 135.321 81.8416 135.845 81.5584 136.298C81.2751 136.748 80.8676 137.101 80.3357 137.356C79.807 137.611 79.1729 137.738 78.4333 137.738H74.8126V128.07H76.5687V136.303H78.4333C78.8236 136.303 79.154 136.229 79.4247 136.081C79.6953 135.933 79.8999 135.738 80.0383 135.496C80.18 135.254 80.2508 134.991 80.2508 134.707C80.2508 134.298 80.0934 133.951 79.7787 133.664C79.4671 133.375 79.0187 133.23 78.4333 133.23H75.9786V131.804ZM83.6862 137.738V128.07H85.4376V132.163H89.9174V128.07H91.6735V137.738H89.9174V133.631H85.4376V137.738H83.6862ZM94.8198 137.738H92.9504L96.354 128.07H98.5161L101.924 137.738H100.055L97.4728 130.053H97.3973L94.8198 137.738ZM94.8812 133.947H99.9795V135.354H94.8812V133.947ZM110.335 137.738H108.579V129.534H106.974C106.54 129.534 106.183 129.598 105.903 129.727C105.626 129.853 105.42 130.039 105.284 130.284C105.152 130.527 105.086 130.819 105.086 131.162C105.086 131.505 105.152 131.795 105.284 132.031C105.416 132.264 105.621 132.442 105.898 132.564C106.178 132.684 106.534 132.744 106.965 132.744H109.316V134.198H106.729C105.986 134.198 105.36 134.075 104.85 133.829C104.34 133.581 103.953 133.23 103.689 132.777C103.428 132.32 103.297 131.782 103.297 131.162C103.297 130.545 103.426 130.006 103.684 129.543C103.945 129.077 104.329 128.715 104.836 128.457C105.343 128.199 105.966 128.07 106.705 128.07H110.335V137.738ZM105.336 133.357H107.248L104.897 137.738H102.943L105.336 133.357ZM121.323 137.738L118.141 133.513H117.282V137.738H115.53V128.07H117.282V132.045H117.721L121.157 128.07H123.315L119.496 132.479L123.48 137.738H121.323ZM132.789 132.904C132.789 133.946 132.594 134.838 132.204 135.581C131.817 136.32 131.288 136.887 130.618 137.28C129.95 137.674 129.194 137.87 128.347 137.87C127.5 137.87 126.742 137.674 126.072 137.28C125.404 136.884 124.876 136.316 124.485 135.576C124.098 134.833 123.905 133.943 123.905 132.904C123.905 131.863 124.098 130.972 124.485 130.232C124.876 129.49 125.404 128.922 126.072 128.528C126.742 128.135 127.5 127.938 128.347 127.938C129.194 127.938 129.95 128.135 130.618 128.528C131.288 128.922 131.817 129.49 132.204 130.232C132.594 130.972 132.789 131.863 132.789 132.904ZM131.028 132.904C131.028 132.171 130.913 131.553 130.684 131.049C130.457 130.542 130.142 130.16 129.74 129.902C129.337 129.641 128.873 129.51 128.347 129.51C127.821 129.51 127.357 129.641 126.954 129.902C126.552 130.16 126.235 130.542 126.006 131.049C125.779 131.553 125.666 132.171 125.666 132.904C125.666 133.637 125.779 134.257 126.006 134.764C126.235 135.268 126.552 135.65 126.954 135.911C127.357 136.169 127.821 136.298 128.347 136.298C128.873 136.298 129.337 136.169 129.74 135.911C130.142 135.65 130.457 135.268 130.684 134.764C130.913 134.257 131.028 133.637 131.028 132.904ZM134.445 128.07H136.588L139.458 135.076H139.571L142.442 128.07H144.585V137.738H142.904V131.096H142.815L140.143 137.71H138.887L136.215 131.082H136.125V137.738H134.445V128.07ZM154.38 128.07V137.738H152.643V129.524H148.413V137.738H146.676V128.07H154.38ZM157.716 137.738H155.847L159.251 128.07H161.413L164.821 137.738H162.952L160.369 130.053H160.294L157.716 137.738ZM157.778 133.947H162.876V135.354H157.778V133.947ZM166.094 137.738V128.07H167.846V132.163H172.326V128.07H174.082V137.738H172.326V133.631H167.846V137.738H166.094ZM175.986 128.07H177.724V134.66H177.813L182.359 128.07H183.931V137.738H182.18V131.153H182.1L177.539 137.738H175.986V128.07ZM192.977 137.738H191.221V129.534H189.616C189.182 129.534 188.825 129.598 188.544 129.727C188.268 129.853 188.061 130.039 187.926 130.284C187.794 130.527 187.728 130.819 187.728 131.162C187.728 131.505 187.794 131.795 187.926 132.031C188.058 132.264 188.263 132.442 188.54 132.564C188.82 132.684 189.175 132.744 189.607 132.744H191.957V134.198H189.371C188.628 134.198 188.002 134.075 187.492 133.829C186.982 133.581 186.595 133.23 186.33 132.777C186.069 132.32 185.939 131.782 185.939 131.162C185.939 130.545 186.068 130.006 186.326 129.543C186.587 129.077 186.971 128.715 187.478 128.457C187.984 128.199 188.607 128.07 189.347 128.07H192.977V137.738ZM187.978 133.357H189.89L187.539 137.738H185.585L187.978 133.357Z" fill="#038AD2"/>
</svg>
