<svg width="52" height="52" viewBox="0 0 52 52" fill="none" xmlns="http://www.w3.org/2000/svg">
<circle cx="26.0909" cy="25.9091" r="25.4091" fill="#F2F4FA" fill-opacity="0.5" stroke="white"/>
<path d="M29.5455 25.0455C29.0685 25.0455 28.6818 25.4321 28.6818 25.9091C28.6818 26.3861 29.0685 26.7727 29.5455 26.7727L29.5455 25.0455ZM31.0198 26.5198C31.3571 26.1825 31.3571 25.6357 31.0198 25.2984L25.5236 19.8023C25.1864 19.465 24.6395 19.465 24.3023 19.8023C23.965 20.1395 23.965 20.6864 24.3023 21.0236L29.1877 25.9091L24.3023 30.7946C23.965 31.1318 23.965 31.6786 24.3023 32.0159C24.6395 32.3532 25.1864 32.3532 25.5236 32.0159L31.0198 26.5198ZM29.5455 26.7727L30.4091 26.7727L30.4091 25.0455L29.5455 25.0455L29.5455 26.7727Z" fill="white"/>
</svg>
